<!--?xml version="1.0" encoding="utf-8"?-->
<!-- Generator: Adobe Illustrator 18.1.1, SVG Export Plug-In . SVG Version: 6.00 Build 0)  -->

<svg version="1.1" id="_x32_" xmlns="http://www.w3.org/2000/svg" xmlns:xlink="http://www.w3.org/1999/xlink" x="0px" y="0px" viewBox="0 0 512 512" style="width: 48px; height: 48px; opacity: 1;" xml:space="preserve">
<style type="text/css">
	.st0{fill:#4B4B4B;}
</style>
<g>
	<path class="st0" d="M378.41,0H133.591C86.242,0,47.7,38.542,47.7,85.899v340.22C47.7,473.476,86.242,512,133.591,512h205.686
		h13.183l9.31-9.301l93.237-93.229l9.293-9.31v-13.174V85.899C464.3,38.542,425.775,0,378.41,0z M201.096,201.699
		c0-30.326,24.578-54.904,54.904-54.904c30.318,0,54.887,24.578,54.887,54.904v13.148c0,30.327-24.569,54.887-54.887,54.887
		c-30.326,0-54.904-24.56-54.904-54.887V201.699z M323.123,356.181c-17.76,0-67.124,0-67.124,0s-49.38,0-67.132,0
		c-17.769,0-25.811-25.828-15.546-44.083c7.739-13.756,20.41-29.354,41.061-38.212c11.802,8.268,26.141,13.132,41.616,13.132
		c15.459,0,29.797-4.864,41.608-13.132c20.643,8.858,33.323,24.456,41.052,38.212C348.934,330.353,340.883,356.181,323.123,356.181z
		 M339.277,480.197v-48.139c0-24.89,20.2-45.073,45.072-45.073h48.148L339.277,480.197z" style="fill: rgb(88, 56, 34);"></path>
</g>
</svg>
